<?xml version="1.0" standalone="no"?>
<!DOCTYPE svg PUBLIC "-//W3C//DTD SVG 20010904//EN"
 "http://www.w3.org/TR/2001/REC-SVG-20010904/DTD/svg10.dtd">
<svg version="1.0" xmlns="http://www.w3.org/2000/svg"
 width="1536.000000pt" height="1536.000000pt" viewBox="0 0 1536.000000 1536.000000"
 preserveAspectRatio="xMidYMid meet">

<g transform="translate(0.000000,1536.000000) scale(0.100000,-0.100000)"
fill="#000000" stroke="none">
<path d="M7645 13711 c-16 -11 -277 -265 -579 -565 l-548 -546 -77 -21 c-392
-105 -670 -211 -1009 -386 -572 -294 -1119 -727 -1548 -1223 -73 -85 -324
-391 -368 -449 -7 -9 -13 -123 -16 -307 -3 -161 -8 -295 -11 -299 -11 -10 -70
-15 -64 -5 10 16 -25 70 -58 90 -30 19 -53 20 -419 20 l-388 0 0 -697 0 -697
-411 -412 c-226 -226 -419 -424 -430 -440 -13 -20 -19 -47 -19 -85 0 -66 29
-117 111 -195 30 -29 210 -209 402 -401 l347 -349 0 -835 0 -834 30 -260 c16
-143 39 -339 50 -435 24 -203 50 -404 55 -408 21 -22 35 1416 35 3671 l0 2197
234 0 c182 0 236 -3 245 -13 8 -10 11 -661 11 -2358 0 -2148 7 -2931 28 -3264
l7 -110 13 80 c7 44 31 222 52 395 41 324 70 533 75 538 1 1 28 -41 60 -95
535 -902 1393 -1627 2415 -2038 157 -63 326 -121 510 -175 l165 -49 547 -553
547 -553 80 -5 80 -5 558 557 559 557 174 51 c1063 312 2006 958 2664 1823
379 498 684 1127 846 1742 l24 90 558 560 c384 386 562 572 573 597 18 44 19
125 2 153 -11 19 -651 667 -989 1002 l-143 142 -42 148 c-242 866 -684 1614
-1319 2233 -154 150 -337 310 -356 310 -5 0 -8 -396 -8 -880 l0 -880 143 0
c211 0 379 -32 525 -101 35 -16 66 -29 69 -29 24 0 223 -149 293 -219 227
-227 343 -512 344 -841 0 -345 -115 -614 -372 -869 -63 -62 -110 -116 -105
-120 237 -158 419 -457 474 -774 19 -113 7 -352 -24 -469 -94 -353 -307 -618
-627 -780 -216 -108 -352 -128 -898 -128 l-313 0 1 502 c1 475 0 503 -17 516
-33 24 -309 171 -409 218 -569 266 -1088 321 -1604 168 -393 -116 -853 -376
-1185 -669 -167 -148 -370 -366 -440 -473 -15 -23 -30 -40 -32 -38 -5 5 6 28
88 202 91 192 397 527 709 775 392 312 730 483 1117 566 122 26 141 28 398 27
l270 0 120 -31 c171 -45 281 -85 434 -160 234 -114 441 -273 522 -401 l29 -46
0 90 c0 49 0 1392 1 2984 1 1972 -2 2954 -9 3080 -6 102 -14 281 -18 398 -10
296 -18 285 -49 -64 -43 -483 -45 -508 -75 -933 -5 -73 -11 -135 -13 -138 -3
-2 -44 19 -91 47 -296 175 -692 335 -1111 450 l-120 33 -543 541 c-299 298
-558 549 -575 558 -44 24 -124 23 -162 -1z m-2095 -3875 c214 -35 408 -135
564 -292 185 -185 284 -415 303 -700 l6 -93 -229 -3 c-126 -2 -231 -2 -233 -1
-1 1 -7 39 -12 85 -18 158 -60 254 -157 359 -172 186 -437 232 -661 114 -133
-70 -224 -179 -278 -330 l-28 -80 1 -1195 c2 -1334 -2 -1262 72 -1404 97 -186
272 -297 474 -298 108 0 174 15 260 59 180 93 282 249 310 470 l12 95 241 -5
c132 -2 240 -8 240 -13 -3 -125 -29 -277 -66 -382 -90 -263 -268 -471 -504
-589 -93 -47 -224 -90 -315 -104 -121 -17 -344 -7 -440 21 -180 53 -320 137
-456 274 -168 169 -249 322 -298 560 -14 66 -16 230 -16 1300 0 1342 -3 1270
60 1458 122 363 456 641 836 697 92 13 221 12 314 -3z m2997 -161 c24 -93 57
-224 74 -290 17 -66 57 -219 89 -340 32 -121 91 -346 130 -500 40 -154 82
-320 95 -370 169 -653 174 -675 166 -676 -3 -1 -49 0 -102 1 -83 2 -254 -12
-315 -25 -20 -4 -24 8 -67 183 -26 103 -93 372 -150 597 -58 226 -116 460
-131 520 -63 262 -89 349 -98 329 -4 -10 -33 -127 -62 -259 -137 -605 -410
-1725 -428 -1755 -6 -10 -24 -25 -39 -34 -95 -56 -339 -256 -463 -378 -32 -32
-60 -57 -62 -56 -2 2 6 35 16 73 11 39 51 198 89 355 39 157 113 458 165 670
52 212 109 444 126 515 17 72 103 418 191 770 88 352 172 686 186 743 l25 102
261 -2 260 -3 44 -170z m403 -2859 c0 -14 -131 -73 -253 -115 -516 -178 -856
-336 -1182 -548 -159 -104 -337 -237 -419 -313 -72 -66 -126 -105 -126 -91 0
15 47 98 85 151 50 68 238 247 345 327 52 39 138 97 190 129 107 65 429 227
535 269 235 93 514 170 685 188 53 6 140 8 140 3z m330 -36 c4 -8 20 -58 35
-110 14 -52 33 -115 40 -140 16 -53 208 -724 254 -886 17 -61 31 -116 31 -122
0 -9 -376 -12 -1516 -12 l-1515 0 6 23 c4 12 17 39 29 60 l21 38 1218 -1
c1051 0 1222 -2 1247 -15 55 -28 53 -11 -45 365 -36 140 -68 263 -70 273 -5
22 -60 217 -79 278 -21 69 -2 102 114 194 l95 75 64 -3 c45 -1 66 -6 71 -17z
m939 -369 l31 -29 -3 -125 c-1 -69 -5 -128 -7 -130 -3 -3 -122 -6 -264 -8
l-259 -4 -23 62 c-27 73 -48 187 -39 221 3 12 16 27 28 32 12 5 131 9 263 9
l242 1 31 -29z m-1324 -268 c4 -21 22 -93 41 -160 49 -177 56 -163 -84 -163
-79 0 -124 4 -134 13 -9 6 -49 77 -89 156 -54 109 -69 148 -62 160 11 17 67
24 230 29 l92 3 6 -38z m-624 -5 c42 -47 60 -115 52 -201 -4 -51 -12 -76 -29
-96 l-22 -26 -187 -3 c-172 -3 -189 -2 -229 18 l-43 20 -7 68 c-3 37 -6 97 -6
133 0 101 3 103 214 109 94 3 184 7 199 8 21 1 36 -7 58 -30z"/>
<path d="M2843 11086 c-104 -34 -194 -114 -241 -215 -35 -77 -42 -204 -14
-283 58 -164 197 -261 376 -261 156 0 282 79 349 220 30 63 32 76 31 168 0 89
-3 106 -28 158 -42 85 -106 151 -183 189 -57 28 -78 33 -157 35 -57 2 -107 -2
-133 -11z"/>
<path d="M10902 8648 l3 -733 160 -3 c139 -2 169 0 229 19 249 75 416 249 487
504 18 65 23 107 23 220 1 131 -1 146 -30 231 -36 104 -41 114 -111 210 -85
118 -191 197 -333 250 -69 26 -89 28 -253 32 l-177 4 2 -734z"/>
<path d="M10902 6709 l3 -734 155 3 c174 3 239 17 370 79 113 54 230 176 292
303 68 138 92 247 86 385 -15 321 -200 576 -483 665 -57 18 -103 23 -248 27
l-177 5 2 -733z"/>
</g>
</svg>
